<svg width="247" height="160" viewBox="0 0 247 160" fill="none" xmlns="http://www.w3.org/2000/svg">
<path d="M226.605 10.6357H237.241V89.9893H246.24V129.257H237.241V139.891H226.605V148.891H206.973V159.525H98.168V151.345H78.5342V139.891H58.9014V139.892H39.2676V110.441H58.9014V70.3545H67.8984V59.7207H77.7158V50.7217H94.8965V42.54H105.53V31.9062H126.801V42.541H116.166V50.7217H137.436V39.2686H147.253V21.2705H137.437V31.9053H116.166V21.2705H126.801V10.6357H157.888V28.6338H168.522V39.2686H184.065V32.7236H194.701V22.0879H205.336V11.4541H215.971V0.818359H226.605V10.6357ZM19.6338 79.3535H29.4502V99.8057H39.2666V129.257H19.6328V120.258H9.81641V99.8057H0V70.3545H19.6338V79.3535ZM206.154 120.258H216.789V98.9883H206.154V120.258ZM137.437 120.258H148.071V98.9883H137.437V120.258ZM215.972 32.7236H205.336V39.2686H216.789V50.7217H226.605V22.0889H215.972V32.7236ZM148.07 10.6348H137.436V0H148.07V10.6348Z" fill="#AFFEB0"/>
</svg>
