<svg width="274" height="274" viewBox="0 0 274 274" fill="none" xmlns="http://www.w3.org/2000/svg">
<g clip-path="url(#clip0_1552_32)">
<path d="M22.7857 227.856H45.5714V250.642H22.7857V227.856ZM0 250.642H22.7857V273.428H0V250.642Z" fill="#835AFF"/>
</g>
<g clip-path="url(#clip1_1552_32)">
<path d="M227.857 227.856H250.643V250.642H227.857V227.856ZM250.643 250.642H273.429V273.428H250.643V250.642Z" fill="#47FF4A"/>
</g>
<g clip-path="url(#clip2_1552_32)">
<path d="M227.857 22.7857H250.643V45.5714H227.857V22.7857ZM250.643 0H273.429V22.7857H250.643V0Z" fill="#FFDE3B"/>
</g>
<g clip-path="url(#clip3_1552_32)">
<path d="M0 0H22.7857V22.7857H0V0ZM22.7857 22.7857H45.5714V45.5714H22.7857V22.7857Z" fill="#FF5959"/>
<path d="M90.3929 193.928H181.536V216.714H90.3929V193.928ZM181.536 171.142H227.107V193.928H181.536V171.142ZM90.3929 171.142H44.8214V193.928H90.3929V171.142ZM181.536 79.9996H227.107V102.785H181.536V79.9996ZM90.3929 79.9996H44.8214V102.785H90.3929V79.9996ZM227.107 102.785H249.893V125.571H227.107V102.785ZM44.8214 102.785H22.0357V125.571H44.8214V102.785ZM249.893 125.571H272.679V148.357H249.893V125.571ZM22.0357 125.571H-0.75V148.357H22.0357V125.571ZM227.107 148.357H249.893V171.142H227.107V148.357ZM44.8214 148.357H22.0357V171.142H44.8214V148.357ZM90.3929 57.2139H181.536V79.9996H90.3929V57.2139ZM113.179 114.178H158.75V159.75H113.179V114.178Z" fill="white"/>
</g>
<defs>
<clipPath id="clip0_1552_32">
<rect width="273.429" height="273.429" fill="white"/>
</clipPath>
<clipPath id="clip1_1552_32">
<rect width="273.429" height="273.429" fill="white"/>
</clipPath>
<clipPath id="clip2_1552_32">
<rect width="273.429" height="273.429" fill="white"/>
</clipPath>
<clipPath id="clip3_1552_32">
<rect width="273.429" height="273.429" fill="white"/>
</clipPath>
</defs>
</svg>
