<svg width="129" height="103" viewBox="0 0 129 103" fill="none" xmlns="http://www.w3.org/2000/svg">
<path d="M103 75H15V0H103V75ZM28 13V62H90V13H28Z" fill="white"/>
<path d="M103 0H128V13H103V0Z" fill="#FF5959"/>
<path d="M129 0V42H116V0H129Z" fill="#FF5959"/>
<path d="M103 29H128V42H103V29Z" fill="#FF5959"/>
<rect y="88" width="117" height="15" fill="#FF5959"/>
<path d="M46.73 45.23H44.84V43.07H46.73V39.35H48.59V35.96H46.73V33.8H48.59V26.39H50.75V33.8H54.14V26.39H56.3V33.8H58.16V35.96H56.3V39.68H54.47V43.07H56.3V45.23H54.47V50.84H52.28V45.23H48.89V50.84H46.73V45.23ZM52.28 43.07V39.35H54.14V35.96H50.75V39.68H48.89V43.07H52.28ZM67.25 28.55H63.56V26.39H69.44V50.84H67.25V28.55Z" fill="#FCE365"/>
</svg>
