<svg width="100" height="100" viewBox="0 0 100 100" fill="none" xmlns="http://www.w3.org/2000/svg">
<path d="M45.0449 11.1108H55.8557V22.222H45.0449V11.1108Z" fill="black"/>
<path d="M45.0449 88.8892H55.8557V77.778H45.0449V88.8892Z" fill="black"/>
<path d="M35.1348 11.1108H45.9456V22.222H35.1348V11.1108Z" fill="black"/>
<path d="M64.8652 11.1108H54.0544V22.222H64.8652V11.1108Z" fill="black"/>
<path d="M35.1348 88.8892H45.9456V77.778H35.1348V88.8892Z" fill="black"/>
<path d="M64.8652 88.8892H54.0544V77.778H64.8652V88.8892Z" fill="black"/>
<path d="M25.2256 16.668H36.0364V27.7791H25.2256V16.668Z" fill="black"/>
<path d="M74.7744 16.668H63.9636V27.7791H74.7744V16.668Z" fill="black"/>
<path d="M25.2256 83.332H36.0364V72.2209H25.2256V83.332Z" fill="black"/>
<path d="M74.7744 83.332H63.9636V72.2209H74.7744V83.332Z" fill="black"/>
<path d="M15.3154 22.2212H26.1262V33.3323H15.3154V22.2212Z" fill="black"/>
<path d="M84.6846 22.2212H73.8738V33.3323H84.6846V22.2212Z" fill="black"/>
<path d="M15.3154 77.7788H26.1262V66.6677H15.3154V77.7788Z" fill="black"/>
<path d="M84.6846 77.7788H73.8738V66.6677H84.6846V77.7788Z" fill="black"/>
<path d="M9.91016 33.332H20.721V44.4431H9.91016V33.332Z" fill="black"/>
<path d="M90.0898 33.332H79.279V44.4431H90.0898V33.332Z" fill="black"/>
<path d="M9.91016 66.668H20.721V55.5569H9.91016V66.668Z" fill="black"/>
<path d="M90.0898 66.668H79.279V55.5569H90.0898V66.668Z" fill="black"/>
<path d="M9.91016 44.4424H20.721V55.5535H9.91016V44.4424Z" fill="black"/>
<path d="M90.0898 44.4424H79.279V55.5535H90.0898V44.4424Z" fill="black"/>
<path d="M0 44.4424H10.8108V55.5535H0V44.4424Z" fill="black"/>
<path d="M100 44.4424H89.1892V55.5535H100V44.4424Z" fill="black"/>
<path d="M45.0449 0H55.8557V11.1111H45.0449V0Z" fill="black"/>
<path d="M45.0449 100H55.8557V88.8889H45.0449V100Z" fill="black"/>
<path d="M39.6396 39.6396H50.4505V50.4505H39.6396V39.6396Z" fill="black"/>
<path d="M61.2617 39.6396H50.4509V50.4505H61.2617V39.6396Z" fill="black"/>
<path d="M50.4502 39.6396H61.261V50.4505H50.4502V39.6396Z" fill="black"/>
<path d="M39.6396 50.4507H50.4505V61.2615H39.6396V50.4507Z" fill="black"/>
<path d="M61.2617 50.4507H50.4509V61.2615H61.2617V50.4507Z" fill="black"/>
</svg>
