<svg width="396" height="440" viewBox="0 0 396 440" fill="none" xmlns="http://www.w3.org/2000/svg">
<path d="M132 0H176V44H132V0Z" fill="black"/>
<path d="M132 264H176V308H132V264Z" fill="black"/>
<path d="M132 352H176V396H132V352Z" fill="black"/>
<path d="M176 0H220V44H176V0Z" fill="black"/>
<path d="M176 264H220V308H176V264Z" fill="black"/>
<path d="M176 352H220V396H176V352Z" fill="black"/>
<path d="M220 0H264V44H220V0Z" fill="black"/>
<path d="M220 264H264V308H220V264Z" fill="black"/>
<path d="M220 352H264V396H220V352Z" fill="black"/>
<path d="M264 352H308V396H264V352Z" fill="black"/>
<path d="M88 352H132V396H88V352Z" fill="black"/>
<path d="M44 308H88V352H44V308Z" fill="black"/>
<path d="M352 308H308V352H352V308Z" fill="black"/>
<path d="M220 396H176V440H220V396Z" fill="black"/>
<path d="M0 264H44V308H0V264Z" fill="black"/>
<path d="M396 264H352V308H396V264Z" fill="black"/>
<path d="M0 220H44V264H0V220Z" fill="black"/>
<path d="M396 220H352V264H396V220Z" fill="black"/>
<path d="M0 176H44V220H0V176Z" fill="black"/>
<path d="M396 176H352V220H396V176Z" fill="black"/>
<path d="M264 44H308V88H264V44Z" fill="black"/>
<path d="M88 44H132V88H88V44Z" fill="black"/>
<path d="M264 88H308V132H264V88Z" fill="black"/>
<path d="M88 88H132V132H88V88Z" fill="black"/>
<path d="M264 132H308V176H264V132Z" fill="black"/>
<path d="M88 132H132V176H88V132Z" fill="black"/>
<path d="M264 176H308V220H264V176Z" fill="black"/>
<path d="M88 176H132V220H88V176Z" fill="black"/>
<path d="M264 220H308V264H264V220Z" fill="black"/>
<path d="M88 220H132V264H88V220Z" fill="black"/>
</svg>
