<svg width="169" height="143" viewBox="0 0 169 143" fill="none" xmlns="http://www.w3.org/2000/svg">
<path d="M91 143H78V130H91V143ZM78 130H65V117H78V130ZM104 130H91V117H104V130ZM65 117H52V104H65V117ZM117 117H104V104H117V117ZM52 104H39V91H52V104ZM130 104H117V91H130V104ZM39 91H26V78H39V91ZM143 91H130V78H143V91ZM26 78H13V65H26V78ZM156 78H143V65H156V78ZM13 65H0V26H13V65ZM169 65H156V26H169V65ZM91 52H78V39H91V52ZM78 39H65V26H78V39ZM104 39H91V26H104V39ZM26 26H13V13H26V26ZM65 26H52V13H65V26ZM117 26H104V13H117V26ZM156 26H143V13H156V26ZM52 0V13H26V0H52ZM143 13H117V0H143V13Z" fill="#B8A1FF"/>
</svg>
